<svg width="390" height="85" viewBox="0 0 390 85" fill="none" xmlns="http://www.w3.org/2000/svg">
<path d="M147.206 34.8448C147.972 33.8301 149.515 33.4386 149.063 35.3536C148.666 37.0643 148.722 37.5349 148.723 37.5401C148.723 37.5401 150.091 36.4225 150.908 37.4044C151.888 38.5889 148.983 40.9597 149.32 40.9278C149.646 40.895 151.251 41.3291 150.682 42.7189C150.117 44.1142 149.434 44.4253 149.42 44.6456C149.401 44.9657 150.925 44.5517 150.702 46.006C150.484 47.4204 148.815 48.285 147.241 48.4737C147.285 49.7942 147.395 51.3972 147.696 51.8478C148.177 52.5671 146.956 52.5675 146.586 52.5675C146.3 52.5675 145.888 51.0266 145.684 48.2833C144.329 47.7304 142.054 46.248 142.002 44.5743C141.925 42.2368 144.394 44.2441 144.335 43.9103C144.214 43.2263 142.624 41.3516 143.393 40.1153C143.894 39.3047 145.179 41.1662 145.009 40.6935C144.839 40.2204 144 38.3809 144.503 37.253C145.009 36.0963 146.043 37.0218 146.292 37.2687C146.455 36.4464 146.59 35.9534 146.63 35.9601C146.632 35.9613 146.632 35.964 146.634 35.9669C146.761 35.5914 146.944 35.1919 147.206 34.8448Z" fill="#C5C5C5"/>
<path d="M312.206 30.8448C312.972 29.8301 314.515 29.4386 314.063 31.3536C313.665 33.0643 313.722 33.5349 313.723 33.5401C313.723 33.5401 315.091 32.4225 315.908 33.4044C316.888 34.5889 313.983 36.9597 314.319 36.9278C314.646 36.895 316.251 37.3291 315.682 38.7189C315.117 40.1142 314.434 40.4253 314.42 40.6456C314.401 40.9657 315.924 40.5517 315.702 42.006C315.484 43.4204 313.815 44.285 312.241 44.4737C312.285 45.7942 312.395 47.3972 312.696 47.8478C313.177 48.5671 311.956 48.5675 311.586 48.5675C311.3 48.5675 310.888 47.0266 310.684 44.2833C309.329 43.7304 307.054 42.248 307.002 40.5743C306.925 38.2368 309.394 40.2441 309.335 39.9103C309.214 39.2263 307.624 37.3516 308.393 36.1153C308.893 35.3047 310.179 37.1662 310.009 36.6935C309.839 36.2204 308.999 34.3809 309.503 33.253C310.009 32.0963 311.043 33.0218 311.292 33.2687C311.455 32.4464 311.59 31.9534 311.63 31.9601C311.632 31.9613 311.632 31.964 311.634 31.9669C311.761 31.5914 311.944 31.1919 312.206 30.8448Z" fill="#C5C5C5"/>
<path d="M119.206 36.8448C119.972 35.8301 121.515 35.4386 121.063 37.3536C120.666 39.0643 120.722 39.5349 120.723 39.5401C120.723 39.5401 122.091 38.4225 122.908 39.4044C123.888 40.5889 120.983 42.9597 121.32 42.9278C121.646 42.895 123.251 43.3291 122.682 44.7189C122.117 46.1142 121.434 46.4253 121.42 46.6456C121.401 46.9657 122.925 46.5517 122.702 48.006C122.484 49.4204 120.815 50.285 119.241 50.4737C119.285 51.7942 119.395 53.3972 119.696 53.8478C120.177 54.5671 118.956 54.5675 118.586 54.5675C118.3 54.5675 117.888 53.0266 117.684 50.2833C116.329 49.7304 114.054 48.248 114.002 46.5743C113.925 44.2368 116.394 46.2441 116.335 45.9103C116.214 45.2263 114.624 43.3516 115.393 42.1153C115.894 41.3047 117.179 43.1662 117.009 42.6935C116.839 42.2204 116 40.3809 116.503 39.253C117.009 38.0963 118.043 39.0218 118.292 39.2687C118.455 38.4464 118.59 37.9534 118.63 37.9601C118.632 37.9613 118.632 37.964 118.634 37.9669C118.761 37.5914 118.944 37.1919 119.206 36.8448Z" fill="#C5C5C5"/>
<path d="M284.206 20.8448C284.972 19.8301 286.515 19.4386 286.063 21.3536C285.665 23.0643 285.722 23.5349 285.723 23.5401C285.723 23.5401 287.091 22.4225 287.908 23.4044C288.888 24.5889 285.983 26.9597 286.319 26.9278C286.646 26.895 288.251 27.3291 287.682 28.7189C287.117 30.1142 286.434 30.4253 286.42 30.6456C286.401 30.9657 287.924 30.5517 287.702 32.006C287.484 33.4204 285.815 34.285 284.241 34.4737C284.285 35.7942 284.395 37.3972 284.696 37.8478C285.177 38.5671 283.956 38.5675 283.586 38.5675C283.3 38.5675 282.888 37.0266 282.684 34.2833C281.329 33.7304 279.054 32.248 279.002 30.5743C278.925 28.2368 281.394 30.2441 281.335 29.9103C281.214 29.2263 279.624 27.3516 280.393 26.1153C280.893 25.3047 282.179 27.1662 282.009 26.6935C281.839 26.2204 280.999 24.3809 281.503 23.253C282.009 22.0963 283.043 23.0218 283.292 23.2687C283.455 22.4464 283.59 21.9534 283.63 21.9601C283.632 21.9613 283.632 21.964 283.634 21.9669C283.761 21.5914 283.944 21.1919 284.206 20.8448Z" fill="#C5C5C5"/>
<path d="M134.249 28.5002C135.609 26.6977 138.349 26.0029 137.545 29.4045C136.842 32.4331 136.941 33.2735 136.943 33.2882C136.971 33.2656 139.382 31.313 140.825 33.047C142.565 35.151 137.405 39.361 138.001 39.3048C138.58 39.2462 141.432 40.0181 140.421 42.4875C139.419 44.9668 138.204 45.5189 138.18 45.9103C138.146 46.4788 140.853 45.7431 140.458 48.3263C140.071 50.8385 137.106 52.3776 134.312 52.7131C134.39 55.0578 134.584 57.902 135.119 58.7023C135.973 59.9811 133.802 59.9817 133.146 59.9816C132.638 59.9811 131.907 57.2451 131.543 52.3742C129.136 51.3922 125.095 48.7566 125.003 45.7834C124.866 41.6312 129.252 45.1967 129.148 44.6037C128.933 43.3887 126.108 40.0593 127.474 37.8634C128.363 36.4221 130.647 39.7297 130.345 38.8898C130.043 38.0497 128.552 34.782 129.447 32.7785C130.342 30.7309 132.173 32.3529 132.624 32.798C132.912 31.3421 133.153 30.4698 133.224 30.4816C133.228 30.4839 133.23 30.4889 133.233 30.4953C133.459 29.8279 133.783 29.117 134.249 28.5002Z" fill="#BBBABA"/>
<path d="M299.249 12.5002C300.609 10.6977 303.349 10.0029 302.545 13.4045C301.842 16.4331 301.941 17.2735 301.943 17.2882C301.971 17.2656 304.382 15.313 305.825 17.047C307.565 19.151 302.405 23.361 303.001 23.3048C303.58 23.2462 306.432 24.0181 305.421 26.4875C304.419 28.9668 303.204 29.5189 303.18 29.9103C303.146 30.4788 305.853 29.7431 305.458 32.3263C305.071 34.8385 302.106 36.3776 299.312 36.7131C299.39 39.0578 299.584 41.902 300.119 42.7023C300.973 43.9811 298.802 43.9817 298.146 43.9816C297.638 43.9811 296.907 41.2451 296.543 36.3742C294.136 35.3922 290.095 32.7566 290.003 29.7834C289.866 25.6312 294.252 29.1967 294.148 28.6037C293.933 27.3887 291.108 24.0593 292.474 21.8634C293.363 20.4221 295.647 23.7297 295.345 22.8898C295.043 22.0497 293.552 18.782 294.447 16.7785C295.342 14.7309 297.173 16.3529 297.624 16.798C297.912 15.3421 298.153 14.4698 298.224 14.4816C298.228 14.4839 298.23 14.4889 298.233 14.4953C298.459 13.8279 298.783 13.117 299.249 12.5002Z" fill="#BBBABA"/>
<path d="M137 57.5C151.909 42.3625 225.382 31 253 31C280.618 31 404.705 81.9368 389.796 81.9368H223.228C223.228 81.9368 24.7648 82.079 4.84515 81.9368C-15.0745 81.7945 47.4469 50.053 67 45.5C86.553 40.947 137 57.5 137 57.5Z" fill="url(#paint0_linear_95_368)"/>
<circle cx="97.032" cy="35.2319" r="14.6648" fill="url(#paint1_linear_95_368)"/>
<path d="M42.5963 21.5512C41.1814 21.574 36.9511 24.3722 35.9152 25.0718C35.8673 25.1041 35.8977 25.1807 35.9542 25.1686C37.0471 24.9341 41.1545 24.1475 42.5963 25.2288C44.2655 26.4808 47.0042 30.5758 48.4388 30.5497C49.558 30.5294 51.3123 29.6834 52.0295 29.3125C52.083 29.2848 52.053 29.2016 51.9936 29.2122C51.4455 29.3098 50.4376 29.4415 50.2124 29.1413C49.8994 28.7239 56.5505 23.1944 57.6721 23.2987C58.6586 23.3905 62.8332 25.7826 63.8245 26.3575C63.8733 26.3857 63.9265 26.3294 63.8932 26.2838C63.0662 25.1514 58.892 19.522 57.6721 19.5689C56.3158 19.6211 49.7951 26.6634 48.4388 26.4808C47.0825 26.2982 44.2134 21.5251 42.5963 21.5512Z" fill="url(#paint2_linear_95_368)"/>
<path d="M197.516 23.8971C198.87 23.919 202.918 26.5966 203.909 27.266C203.955 27.2969 203.926 27.3702 203.872 27.3586C202.826 27.1342 198.896 26.3815 197.516 27.4163C195.919 28.6143 193.298 32.5327 191.925 32.5078C190.854 32.4883 189.175 31.6788 188.489 31.3239C188.438 31.2974 188.467 31.2178 188.524 31.2279C189.048 31.3213 190.013 31.4473 190.228 31.16C190.528 30.7607 184.163 25.4695 183.09 25.5693C182.146 25.6572 178.151 27.9461 177.203 28.4962C177.156 28.5233 177.105 28.4694 177.137 28.4258C177.928 27.3422 181.923 21.9554 183.09 22.0003C184.388 22.0502 190.627 28.789 191.925 28.6143C193.223 28.4396 195.968 23.8722 197.516 23.8971Z" fill="url(#paint3_linear_95_368)"/>
<path d="M46.8542 15.7452C46.2688 15.7546 44.5183 16.9125 44.0897 17.202C44.0699 17.2154 44.0824 17.2471 44.1058 17.242C44.558 17.145 46.2577 16.8195 46.8542 17.267C47.545 17.785 48.6782 19.4795 49.2718 19.4687C49.735 19.4603 50.4609 19.1103 50.7576 18.9568C50.7798 18.9453 50.7674 18.9109 50.7428 18.9153C50.516 18.9556 50.0989 19.0101 50.0058 18.8859C49.8762 18.7132 52.6284 16.4251 53.0925 16.4683C53.5007 16.5063 55.2282 17.4961 55.6383 17.734C55.6585 17.7457 55.6805 17.7224 55.6668 17.7035C55.3246 17.2349 53.5973 14.9055 53.0925 14.9249C52.5313 14.9465 49.8331 17.8606 49.2718 17.785C48.7106 17.7095 47.5234 15.7344 46.8542 15.7452Z" fill="url(#paint4_linear_95_368)"/>
<path d="M195.27 19.8204C195.855 19.8298 197.606 20.9877 198.034 21.2772C198.054 21.2905 198.042 21.3222 198.018 21.3172C197.566 21.2202 195.866 20.8947 195.27 21.3422C194.579 21.8602 193.446 23.5547 192.852 23.5439C192.389 23.5355 191.663 23.1854 191.366 23.032C191.344 23.0205 191.357 22.9861 191.381 22.9905C191.608 23.0308 192.025 23.0853 192.118 22.9611C192.248 22.7884 189.496 20.5003 189.032 20.5435C188.623 20.5815 186.896 21.5713 186.486 21.8092C186.465 21.8209 186.443 21.7976 186.457 21.7787C186.799 21.3101 188.527 18.9807 189.032 19.0001C189.593 19.0217 192.291 21.9358 192.852 21.8602C193.413 21.7847 194.601 19.8096 195.27 19.8204Z" fill="url(#paint5_linear_95_368)"/>
<path d="M191.132 17.3247C190.9 17.3285 190.207 17.7868 190.038 17.9014C190.03 17.9067 190.035 17.9192 190.044 17.9172C190.223 17.8788 190.896 17.75 191.132 17.9271C191.406 18.1322 191.854 18.8029 192.089 18.7986C192.272 18.7953 192.56 18.6567 192.677 18.596C192.686 18.5915 192.681 18.5778 192.671 18.5796C192.582 18.5955 192.416 18.6171 192.38 18.5679C192.328 18.4996 193.418 17.5939 193.601 17.611C193.763 17.626 194.447 18.0178 194.609 18.112C194.617 18.1166 194.626 18.1074 194.62 18.0999C194.485 17.9144 193.801 16.9924 193.601 17C193.379 17.0086 192.311 18.1621 192.089 18.1322C191.867 18.1023 191.397 17.3205 191.132 17.3247Z" fill="url(#paint6_linear_95_368)"/>
<path d="M313.787 72.5568C313.764 72.4924 313.738 72.4287 313.707 72.3678C313.687 72.3278 313.65 72.2979 313.61 72.2798C313.571 72.2625 313.518 72.251 313.477 72.2659C313.08 72.409 312.681 72.5613 312.324 72.7907C312.159 72.8971 312.002 73.0185 311.86 73.1549C311.724 73.2856 311.601 73.4303 311.49 73.5822C311.275 73.8735 311.11 74.2015 310.988 74.5416C310.928 74.7092 310.88 74.8808 310.841 75.0549C310.773 74.7739 310.705 74.4931 310.636 74.2123C310.548 73.853 310.459 73.4938 310.369 73.1348C310.279 72.7744 310.188 72.414 310.096 72.054C310.005 71.6953 309.912 71.337 309.819 70.9789C309.797 70.8913 309.774 70.8036 309.751 70.716C309.743 70.6857 309.729 70.657 309.709 70.6325C309.697 70.5471 309.684 70.4619 309.672 70.3766C309.665 70.3285 309.62 70.2705 309.578 70.2473C309.529 70.2202 309.476 70.2098 309.421 70.2223C309.359 70.2361 309.297 70.2499 309.236 70.2639C309.184 70.2754 309.134 70.3129 309.107 70.3578C309.101 70.3675 309.096 70.3783 309.091 70.3895C309.078 70.4019 309.066 70.4163 309.057 70.4327C309.049 70.449 309.042 70.4653 309.035 70.4814C309.024 70.5174 309.023 70.5538 309.032 70.5904C309.084 70.988 309.141 71.3853 309.2 71.7821C309.26 72.1789 309.323 72.5752 309.39 72.9707C309.427 73.1926 309.465 73.4142 309.504 73.6355C309.268 73.4158 309.018 73.2099 308.757 73.0215C308.542 72.8663 308.307 72.737 308.048 72.6735C307.804 72.6137 307.551 72.6002 307.301 72.6175C307.017 72.6371 306.737 72.6864 306.457 72.7405C306.35 72.7613 306.275 72.8869 306.304 72.9921C306.401 73.3437 306.544 73.685 306.728 73.9998C306.911 74.314 307.136 74.6074 307.393 74.8646C307.643 75.1146 307.926 75.3347 308.231 75.5129C308.529 75.6875 308.852 75.8268 309.183 75.9239C309.444 76 309.712 76.0514 309.983 76.0764C310.014 76.221 310.045 76.3655 310.077 76.5098C310.164 76.9031 310.254 77.2955 310.348 77.6872C310.441 78.0758 310.537 78.4636 310.637 78.8506C310.737 79.2392 310.84 79.6267 310.946 80.0135C311.053 80.4002 311.163 80.7861 311.276 81.1708C311.389 81.5557 311.506 81.9395 311.625 82.3223C311.654 82.4154 311.684 82.5085 311.713 82.6016C311.734 82.6661 311.768 82.7137 311.831 82.7417C311.855 82.755 311.881 82.7615 311.908 82.7615C311.946 82.7625 311.982 82.7539 312.016 82.7356L312.499 82.5277C312.514 82.5171 312.528 82.5064 312.543 82.4957C312.563 82.4773 312.578 82.4553 312.587 82.4298C312.604 82.3913 312.616 82.3377 312.601 82.2963C312.499 82.0108 312.399 81.7245 312.301 81.4376C312.248 81.1948 312.196 80.952 312.143 80.7093C312.064 80.3479 311.984 79.9864 311.903 79.6253C311.823 79.2642 311.742 78.9031 311.659 78.5424C311.636 78.4376 311.612 78.3329 311.588 78.2282C311.672 78.1694 311.747 78.0966 311.811 78.0196C311.95 77.8504 312.062 77.6622 312.174 77.4741C312.393 77.1062 312.598 76.7292 312.786 76.3445C312.981 75.9463 313.161 75.54 313.323 75.1273C313.401 74.9265 313.476 74.7243 313.546 74.5203C313.616 74.3185 313.684 74.1156 313.741 73.9099C313.804 73.6852 313.853 73.4538 313.867 73.2206C313.875 73.0993 313.869 72.9795 313.855 72.8588C313.844 72.7557 313.821 72.6539 313.786 72.5564L313.787 72.5568Z" fill="#75A175"/>
<path d="M313.793 66.2281C313.753 66.1331 313.706 66.0409 313.649 65.9548C313.527 65.7696 313.366 65.6095 313.166 65.5112C312.775 65.3198 312.323 65.3282 311.916 65.4672C311.763 65.5199 311.614 65.5866 311.471 65.6621C311.497 65.6228 311.523 65.5831 311.548 65.5433C311.65 65.3848 311.748 65.2237 311.841 65.0598C311.937 64.891 312.028 64.719 312.094 64.5355C312.128 64.4384 312.15 64.3397 312.163 64.2375C312.177 64.1364 312.172 64.0365 312.155 63.9359C312.125 63.7529 312.025 63.5792 311.892 63.4516C311.759 63.3245 311.59 63.2296 311.411 63.1882C311.214 63.1429 311.005 63.1528 310.813 63.2144C310.612 63.279 310.429 63.388 310.273 63.5312C310.125 63.6674 310.006 63.8351 309.901 64.0055C309.71 64.3136 309.545 64.6387 309.401 64.9709C309.272 65.2674 309.158 65.5699 309.063 65.8789C309.052 65.8086 309.04 65.7386 309.026 65.6688C308.967 65.356 308.888 65.0468 308.798 64.7415C308.72 64.4737 308.626 64.2072 308.498 63.9585C308.44 63.8444 308.373 63.7344 308.296 63.632C308.211 63.5193 308.12 63.413 308.01 63.3234C307.95 63.2742 307.888 63.227 307.821 63.1868C307.753 63.1451 307.68 63.1117 307.606 63.0813C307.54 63.0543 307.471 63.0344 307.401 63.022C307.316 63.0069 307.23 62.9964 307.144 63.0011C306.971 63.0108 306.799 63.0592 306.659 63.1647C306.586 63.22 306.521 63.2793 306.464 63.3516C306.41 63.4212 306.359 63.4928 306.316 63.5704C306.165 63.8425 306.091 64.1548 306.087 64.4651C306.085 64.631 306.104 64.7984 306.137 64.9608C306.174 65.1382 306.233 65.308 306.303 65.4749C306.384 65.6718 306.487 65.8579 306.603 66.0353C306.633 66.1051 306.664 66.1744 306.697 66.243C306.83 66.5211 306.991 66.7841 307.189 67.0206C307.286 67.1371 307.395 67.2456 307.512 67.3432C307.422 67.3469 307.332 67.3536 307.242 67.3637C306.983 67.3929 306.728 67.4421 306.48 67.5212C306.234 67.5994 305.99 67.6996 305.768 67.8301C305.534 67.9671 305.323 68.1536 305.209 68.4047C305.093 68.6611 305.032 68.9468 305.007 69.2266C304.994 69.3711 305 69.5138 305.02 69.6576C305.038 69.7892 305.078 69.9138 305.134 70.0343C305.185 70.1452 305.256 70.2483 305.339 70.3379C305.42 70.4253 305.519 70.5028 305.626 70.5537C305.761 70.6173 305.902 70.6512 306.051 70.6536C306.188 70.6561 306.327 70.6337 306.461 70.6017C306.691 70.5462 306.915 70.4621 307.13 70.3632C307.296 70.2869 307.456 70.1979 307.61 70.0982C307.555 70.2771 307.504 70.4575 307.457 70.6389C307.425 70.7597 307.392 70.8807 307.37 71.0037C307.356 71.0819 307.345 71.1615 307.341 71.2411C307.338 71.3209 307.346 71.4012 307.359 71.4798C307.404 71.7348 307.594 71.9813 307.847 72.052C308.004 72.0956 308.171 72.0658 308.31 71.9861C308.432 71.9163 308.534 71.813 308.62 71.703C308.771 71.5095 308.907 71.3041 309.024 71.0884C309.126 70.9015 309.216 70.7074 309.293 70.5079C309.431 70.7581 309.603 70.9927 309.804 71.1944C310.027 71.4171 310.292 71.616 310.597 71.7063C310.759 71.7541 310.93 71.766 311.095 71.7301C311.26 71.6942 311.412 71.601 311.528 71.4801C311.635 71.3694 311.719 71.2364 311.78 71.0956C311.842 70.9521 311.891 70.806 311.918 70.6517C311.973 70.3405 311.963 70.0257 311.895 69.7171C311.829 69.418 311.706 69.1296 311.547 68.8684C311.488 68.7712 311.424 68.6769 311.356 68.5854C311.372 68.5866 311.387 68.5877 311.403 68.5885C311.526 68.595 311.647 68.5859 311.768 68.5703C312 68.5406 312.22 68.4662 312.433 68.3742C312.635 68.2869 312.828 68.1781 313.015 68.0609C313.183 67.9556 313.348 67.8429 313.495 67.7098C313.633 67.5848 313.758 67.4342 313.833 67.2621C313.856 67.2075 313.879 67.1531 313.894 67.0953C313.91 67.0322 313.92 66.9666 313.925 66.9017C313.935 66.7876 313.922 66.6707 313.901 66.5588C313.878 66.4442 313.838 66.3355 313.793 66.2281L313.793 66.2281Z" fill="#83C1FC"/>
<path d="M310.157 67.3819C310.125 67.3317 310.088 67.2848 310.047 67.243C309.84 67.0324 309.532 66.9424 309.248 67.0175C309.018 67.078 308.774 67.198 308.641 67.4085C308.484 67.6559 308.479 68.0208 308.577 68.289C308.674 68.5543 308.889 68.7376 309.17 68.7799C309.454 68.8226 309.757 68.7262 309.976 68.5439C310.318 68.2593 310.394 67.7588 310.157 67.3821L310.157 67.3819Z" fill="#F9692F"/>
<ellipse cx="312.38" cy="83.1186" rx="2.61901" ry="0.357137" fill="#D9D9D9"/>
<path d="M333.029 82.1065C333.063 81.6828 333.105 81.2598 333.154 80.8375C333.178 80.6316 333.204 80.4265 333.23 80.221C333.232 80.2107 333.234 80.1895 333.236 80.1727C333.24 80.1457 333.244 80.1187 333.247 80.0914C333.265 79.9618 333.284 79.8322 333.302 79.7029C333.409 78.9681 333.529 78.2353 333.65 77.5025C333.98 77.8779 334.36 78.2134 334.767 78.5054C335.986 79.3822 337.459 79.7597 338.929 79.946C340.448 80.1385 341.983 80.0992 343.505 80.2343C343.684 80.25 343.863 80.2685 344.042 80.2897C344.081 80.2945 344.121 80.2996 344.161 80.3044C344.163 80.3044 344.165 80.3051 344.167 80.3051C344.169 80.3051 344.171 80.3058 344.173 80.3058C344.281 80.3225 344.389 80.3376 344.497 80.3557C344.858 80.4159 345.216 80.4921 345.569 80.5896C345.75 80.6395 345.929 80.6949 346.105 80.7564C346.18 80.7824 346.254 80.8094 346.327 80.8378C346.373 80.8553 346.418 80.8741 346.463 80.8915C346.478 80.898 346.493 80.9045 346.508 80.911C346.814 81.0471 347.11 81.2071 347.399 81.3764C348.717 82.1468 350.09 83.1856 351.708 83.0116C351.948 82.9859 352.134 82.9179 352.285 82.723C352.413 82.5565 352.502 82.2935 352.416 82.0846L350.015 76.2554C349.61 75.2706 349.212 74.2824 348.796 73.302C348.428 72.4355 347.967 71.621 347.233 71.0106C345.767 69.7926 343.785 69.2219 341.899 69.1997C340.078 69.1785 338.244 69.6948 336.725 70.7032C335.868 71.2722 335.119 71.9687 334.496 72.7651C334.618 72.1688 334.748 71.5738 334.889 70.9819C335.146 70.2826 335.404 69.5837 335.664 68.8858C336.31 67.1517 337.041 65.3647 337.997 63.7425C339.046 61.9644 340.43 60.3969 341.654 58.7395C342.074 58.1708 342.68 57.5266 342.911 56.8451C343.106 56.2727 343.044 53.8804 342.052 55.1111C340.773 56.6967 335.914 63.5216 335.131 65.3849C334.639 66.2411 334.174 67.1121 333.736 67.996C333.763 65.575 333.48 63.1534 332.877 60.7991C332.628 59.8255 332.31 58.8551 331.442 58.2604C331.252 58.1302 330.991 58.1384 330.789 58.2235C330.563 58.3186 330.454 58.4779 330.364 58.6981C329.556 60.6712 329.297 62.8497 329.4 64.9691C329.508 67.1911 330.002 69.3754 330.64 71.4999C330.859 72.2297 331.095 72.9542 331.337 73.6768C330.731 75.3933 330.221 77.1438 329.827 78.9181C329.613 79.8776 329.464 81.0396 330.072 81.8972C330.364 82.3106 330.736 82.619 331.209 82.805C331.697 82.9969 332.193 82.9432 332.664 82.7401C332.906 82.6358 333.009 82.3451 333.028 82.1075L333.029 82.1065Z" fill="#18441B"/>
<path d="M347.179 67.1351C347.889 66.575 348.459 65.7977 348.851 64.9876C349.122 64.4292 349.321 63.8555 349.462 63.2639C349.922 64.1181 350.563 64.8553 351.526 65.1367C352.452 65.4072 353.407 65.1227 354.11 64.4901C354.741 63.9221 355.145 63.07 355.332 62.2531C355.709 60.5981 355.337 58.8186 354.642 57.299C354.558 57.1157 354.467 56.9351 354.37 56.7573C354.617 56.6992 354.852 56.5987 355.059 56.4472C355.328 56.2509 355.568 56.0215 355.722 55.7216C355.881 55.4138 355.955 55.1139 355.987 54.7709C356.04 54.2067 355.87 53.649 355.654 53.1364C355.443 52.6362 355.116 52.2033 354.766 51.7912C354.078 50.9825 353.195 50.3085 352.243 49.8414C351.933 49.6896 351.616 49.5563 351.292 49.4417C351.909 49.0327 352.427 48.4275 352.624 47.708C352.869 46.8121 352.512 45.8872 351.732 45.3869C351.11 44.9878 350.322 44.9677 349.617 45.0908C349.287 45.1482 348.976 45.2628 348.674 45.4006C348.725 45.0603 348.755 44.717 348.762 44.3737C348.775 43.6922 348.695 42.9963 348.525 42.336C348.415 41.9096 348.257 41.4887 347.945 41.1662C347.645 40.8554 347.247 40.7067 346.827 40.6598C346.185 40.588 345.455 40.8944 345.031 41.3748C344.772 41.6679 344.597 42.0074 344.487 42.3696C344.178 41.9384 343.853 41.4996 343.46 41.1416C342.652 40.4068 341.6 39.8586 340.482 40.0324C339.354 40.2074 338.642 41.3406 338.708 42.4263C338.724 42.6732 338.762 42.9136 338.822 43.1478C338.31 42.9064 337.776 42.7142 337.232 42.5754C336.391 42.3607 335.505 42.2591 334.636 42.3049C333.709 42.3538 332.78 42.5299 331.934 42.9201C331.054 43.3263 330.315 44.1015 330.261 45.1068C330.229 45.7087 330.506 46.2842 330.809 46.7861C331.046 47.1797 331.322 47.5504 331.613 47.9057C332.703 49.2317 334.192 50.2019 335.797 50.791C335.983 50.8594 336.172 50.9217 336.362 50.9781C335.75 51.4199 335.221 51.9478 334.798 52.5784C334.391 53.1836 334.18 53.8836 334.082 54.5986C333.901 55.9219 334.277 57.3636 335.199 58.3504C335.686 58.8726 336.369 59.2528 337.075 59.3725C337.967 59.524 338.86 59.3989 339.701 59.0754C340.279 58.8535 340.834 58.5806 341.369 58.2728C341.182 58.7663 341.027 59.2706 340.912 59.7863C340.464 61.7952 340.625 63.9929 341.672 65.7998C342.204 66.7179 342.97 67.5844 344 67.9345C345.128 68.3182 346.295 67.832 347.178 67.1354L347.179 67.1351Z" fill="#ECA0FD"/>
<path d="M350.331 56.6985C350.67 56.3969 350.89 55.9405 350.992 55.5045C351.341 54.0146 350.51 52.4618 349.742 51.237C348.968 50.0036 347.908 48.9439 346.702 48.1311C345.925 47.6075 345.069 47.1938 344.179 46.9004C343.169 46.5673 341.867 46.2295 340.944 46.9414C340.453 47.32 340.169 47.9249 340.301 48.5445C340.729 50.5517 343.847 51.6213 345.167 52.8099C346.669 54.1616 346.56 56.4718 348.496 57.1256C349.033 57.3069 349.917 57.0675 350.331 56.6985L350.331 56.6985Z" fill="#F4DFCB"/>
<ellipse cx="337" cy="84" rx="14" ry="1" fill="#D9D9D9"/>
<path d="M327.018 83.8348C327.007 83.7053 326.995 83.5761 326.98 83.447C326.972 83.3841 326.964 83.3214 326.956 83.2586C326.956 83.2555 326.955 83.249 326.954 83.2439C326.953 83.2357 326.952 83.2274 326.951 83.219C326.946 83.1794 326.94 83.1398 326.934 83.1003C326.902 82.8758 326.865 82.6519 326.828 82.428C326.727 82.5427 326.611 82.6452 326.487 82.7344C326.114 83.0023 325.664 83.1177 325.215 83.1746C324.751 83.2335 324.282 83.2214 323.817 83.2627C323.762 83.2675 323.707 83.2732 323.653 83.2796C323.641 83.2811 323.629 83.2827 323.616 83.2841C323.616 83.2841 323.615 83.2843 323.614 83.2843C323.614 83.2843 323.613 83.2846 323.613 83.2846C323.58 83.2897 323.547 83.2943 323.514 83.2998C323.403 83.3182 323.294 83.3415 323.186 83.3713C323.131 83.3865 323.076 83.4035 323.022 83.4223C322.999 83.4302 322.977 83.4385 322.954 83.4471C322.94 83.4525 322.927 83.4582 322.913 83.4635C322.908 83.4655 322.904 83.4675 322.899 83.4695C322.806 83.5111 322.715 83.56 322.627 83.6117C322.224 83.8471 321.805 84.1645 321.31 84.1113C321.237 84.1035 321.18 84.0827 321.134 84.0232C321.095 83.9723 321.068 83.8919 321.094 83.8281L321.827 82.0469C321.951 81.746 322.073 81.4441 322.2 81.1445C322.312 80.8798 322.453 80.6309 322.678 80.4444C323.126 80.0722 323.731 79.8978 324.308 79.891C324.864 79.8845 325.424 80.0423 325.888 80.3504C326.15 80.5243 326.379 80.7371 326.57 80.9805C326.532 80.7983 326.493 80.6165 326.449 80.4356C326.371 80.2219 326.292 80.0084 326.213 79.7951C326.015 79.2653 325.792 78.7192 325.5 78.2236C325.179 77.6803 324.756 77.2013 324.382 76.6949C324.254 76.5211 324.069 76.3243 323.998 76.116C323.939 75.9411 323.958 75.2102 324.261 75.5862C324.652 76.0707 326.136 78.1561 326.376 78.7254C326.526 78.987 326.668 79.2532 326.802 79.5232C326.793 78.7835 326.88 78.0435 327.064 77.3242C327.14 77.0267 327.238 76.7302 327.503 76.5485C327.561 76.5087 327.64 76.5112 327.702 76.5372C327.771 76.5662 327.804 76.6149 327.832 76.6822C328.079 77.2851 328.158 77.9508 328.127 78.5984C328.094 79.2773 327.943 79.9447 327.748 80.5939C327.681 80.8169 327.609 81.0383 327.535 81.259C327.72 81.7835 327.876 82.3184 327.996 82.8606C328.061 83.1537 328.107 83.5088 327.921 83.7708C327.832 83.8971 327.718 83.9914 327.574 84.0482C327.425 84.1068 327.273 84.0904 327.129 84.0284C327.055 83.9965 327.024 83.9077 327.018 83.8351L327.018 83.8348Z" fill="#18441B"/>
<path d="M322.695 79.26C322.478 79.0889 322.303 78.8514 322.183 78.6039C322.101 78.4332 322.04 78.2579 321.997 78.0772C321.856 78.3382 321.66 78.5634 321.366 78.6494C321.083 78.7321 320.792 78.6451 320.577 78.4518C320.384 78.2783 320.26 78.0179 320.203 77.7683C320.088 77.2626 320.202 76.7189 320.414 76.2545C320.44 76.1985 320.468 76.1434 320.497 76.089C320.422 76.0713 320.35 76.0406 320.287 75.9943C320.204 75.9343 320.131 75.8642 320.084 75.7726C320.036 75.6785 320.013 75.5869 320.003 75.4821C319.987 75.3097 320.039 75.1393 320.105 74.9827C320.169 74.8298 320.269 74.6975 320.376 74.5716C320.586 74.3245 320.856 74.1186 321.147 73.9759C321.242 73.9295 321.339 73.8887 321.438 73.8537C321.249 73.7288 321.091 73.5438 321.031 73.324C320.956 73.0502 321.065 72.7676 321.303 72.6147C321.493 72.4928 321.734 72.4866 321.949 72.5243C322.05 72.5418 322.145 72.5768 322.238 72.6189C322.222 72.515 322.213 72.4101 322.211 72.3052C322.207 72.0969 322.231 71.8843 322.283 71.6825C322.317 71.5523 322.365 71.4236 322.46 71.3251C322.552 71.2301 322.673 71.1847 322.802 71.1704C322.998 71.1484 323.221 71.242 323.351 71.3888C323.43 71.4784 323.483 71.5821 323.517 71.6928C323.611 71.561 323.711 71.427 323.831 71.3176C324.078 71.093 324.399 70.9256 324.741 70.9786C325.085 71.0321 325.303 71.3784 325.283 71.7101C325.278 71.7856 325.266 71.859 325.248 71.9306C325.404 71.8568 325.568 71.7981 325.734 71.7557C325.991 71.6901 326.262 71.659 326.527 71.673C326.81 71.688 327.094 71.7418 327.353 71.861C327.622 71.9851 327.847 72.222 327.864 72.5292C327.874 72.7131 327.789 72.8889 327.696 73.0423C327.624 73.1626 327.54 73.2758 327.451 73.3844C327.118 73.7896 326.663 74.086 326.172 74.266C326.115 74.2869 326.058 74.3059 326 74.3232C326.187 74.4582 326.348 74.6195 326.478 74.8121C326.602 74.9971 326.666 75.211 326.696 75.4294C326.752 75.8338 326.637 76.2743 326.355 76.5758C326.206 76.7354 325.998 76.8516 325.782 76.8881C325.509 76.9344 325.236 76.8962 324.979 76.7973C324.803 76.7295 324.633 76.6461 324.47 76.5521C324.527 76.7029 324.574 76.857 324.609 77.0146C324.746 77.6284 324.697 78.2999 324.377 78.852C324.215 79.1325 323.98 79.3973 323.666 79.5043C323.321 79.6215 322.964 79.473 322.695 79.2601L322.695 79.26Z" fill="#ECA0FD"/>
<path d="M321.731 76.0711C321.628 75.9789 321.56 75.8394 321.529 75.7062C321.423 75.251 321.676 74.7765 321.911 74.4023C322.148 74.0254 322.471 73.7016 322.84 73.4532C323.077 73.2933 323.339 73.1669 323.611 73.0772C323.92 72.9754 324.317 72.8722 324.6 73.0897C324.75 73.2054 324.836 73.3902 324.796 73.5796C324.665 74.1929 323.712 74.5197 323.309 74.8829C322.85 75.2959 322.883 76.0018 322.292 76.2016C322.128 76.257 321.858 76.1838 321.731 76.0711L321.731 76.0711Z" fill="#F4DFCB"/>
<ellipse cx="1.85425" cy="0.252852" rx="1.85425" ry="0.252852" transform="matrix(-1 0 0 1 329.313 84.1172)" fill="#D9D9D9"/>
<defs>
<linearGradient id="paint0_linear_95_368" x1="195.5" y1="31" x2="195.5" y2="82" gradientUnits="userSpaceOnUse">
<stop stop-color="#DADADA"/>
<stop offset="1" stop-color="#F6F6F6"/>
</linearGradient>
<linearGradient id="paint1_linear_95_368" x1="97.032" y1="20.5671" x2="97.032" y2="49.8967" gradientUnits="userSpaceOnUse">
<stop stop-color="#FF5A5A" stop-opacity="0.5"/>
<stop offset="1" stop-color="#FFCBCB" stop-opacity="0.1"/>
</linearGradient>
<linearGradient id="paint2_linear_95_368" x1="49.8603" y1="19.5689" x2="49.8603" y2="30.5497" gradientUnits="userSpaceOnUse">
<stop stop-opacity="0.1"/>
<stop offset="1" stop-color="#737373" stop-opacity="0.05"/>
</linearGradient>
<linearGradient id="paint3_linear_95_368" x1="190.565" y1="22.0003" x2="190.565" y2="32.5078" gradientUnits="userSpaceOnUse">
<stop stop-opacity="0.1"/>
<stop offset="1" stop-color="#737373" stop-opacity="0.05"/>
</linearGradient>
<linearGradient id="paint4_linear_95_368" x1="49.8601" y1="14.9249" x2="49.8601" y2="19.4687" gradientUnits="userSpaceOnUse">
<stop stop-opacity="0.1"/>
<stop offset="1" stop-color="#737373" stop-opacity="0.05"/>
</linearGradient>
<linearGradient id="paint5_linear_95_368" x1="192.264" y1="19.0001" x2="192.264" y2="23.5439" gradientUnits="userSpaceOnUse">
<stop stop-opacity="0.1"/>
<stop offset="1" stop-color="#737373" stop-opacity="0.05"/>
</linearGradient>
<linearGradient id="paint6_linear_95_368" x1="192.322" y1="17.0001" x2="192.322" y2="18.7986" gradientUnits="userSpaceOnUse">
<stop stop-opacity="0.1"/>
<stop offset="1" stop-color="#737373" stop-opacity="0.05"/>
</linearGradient>
</defs>
</svg>
