<svg width="40" height="40" viewBox="0 0 40 40" fill="none" xmlns="http://www.w3.org/2000/svg">
<path d="M27.8741 8.85953C25.7066 10.11 22.5193 11.1934 22.5193 11.1934C22.5193 11.1934 20.9972 7.39302 23.1647 6.14257C25.3321 4.89213 29.4439 5.23692 29.4439 5.23692C29.4439 5.23692 30.0415 7.60909 27.8741 8.85953Z" stroke="white" stroke-width="2.5" stroke-linejoin="round"/>
<path d="M15.6349 12.1934C16.879 12.1934 17.8506 13.8095 19.9241 15.4256C21.9975 17.0417 22.2698 16.6377 22.2698 16.6377C24.9002 16.2337 26.559 13.0014 29.8764 14.2135C33.1939 15.4256 30.5635 19.5006 29.0471 19.8699C27.5306 20.2393 25.3149 21.486 25.7296 22.6981C26.1443 23.9102 29.3195 23.9102 30.5635 23.5062C31.8075 23.1022 33.0516 27.5465 30.5635 30.7787C28.0754 34.011 24.7579 33.2029 23.5139 32.7989C22.2698 32.3949 21.0258 30.3747 19.3671 30.7787C17.7083 31.1828 16.879 31.9908 15.6349 32.7989C14.3909 33.6069 10.6587 32.7989 8.99999 29.5666C7.34126 26.3344 7.89825 23.9102 9.55698 18.2538C11.2157 12.5974 14.3909 12.1934 15.6349 12.1934Z" stroke="white" stroke-width="2.5"/>
</svg>
