<svg width="24" height="24" viewBox="0 0 24 24" fill="none" xmlns="http://www.w3.org/2000/svg">
<path d="M4.55527 5.33333C6.3854 3.2875 9.04499 2 12.0051 2C17.5251 2 22 6.47715 22 12C22 15.9582 19.7015 19.3793 16.367 21" stroke="#141B34" stroke-width="2" stroke-linecap="round" stroke-linejoin="round"/>
<path d="M11.7347 22C12.2016 22 12.6611 21.9688 13.1111 21.9083M2.26537 8.66667C2.15297 9.06386 2.06477 9.46528 2 9.86893M2.03457 13.538C2.10487 13.938 2.19644 14.3342 2.30852 14.7244M3.83292 17.9963C4.07124 18.3496 4.3296 18.6899 4.6071 19.0146M7.42857 21.3607C7.78228 21.5631 8.15042 21.7463 8.53228 21.9083" stroke="#141B34" stroke-width="2" stroke-linecap="round" stroke-linejoin="round"/>
</svg>
